<svg height="48.000004" viewBox="0 0 48 48.000004" width="48" xmlns="http://www.w3.org/2000/svg"><path d="m306.05445 145.80219c1.41824 0 2.56-1.14176 2.56-2.56v-42.88c0-1.418242-1.14176-2.560002-2.56-2.560002h-42.88c-1.41824 0-2.56 1.14176-2.56 2.560002v42.88c0 1.41824 1.14176 2.56 2.56 2.56m23.0768-.0358v-18.57h-6.25125v-7.19639h6.25125c0-4.25211-.72533-9.60457 2.89789-12.70828.53723-.4602 1.10469-.86125 1.73875-1.17797.84487-.42202 1.76-.70466 2.69094-.8607.7107-.11911 1.42126-.16344 2.13172-.16539 1.81562-.005 3.63049.26641 5.44429.2714v6.49336h-3.76734c-.92787 0-1.99897.066-2.73227.71071-.83658.73556-.91078 1.84754-.91078 2.88742v4.54945h7.16196c-.41194 2.30014-.97711 7.13008-.97711 7.13008s-4.07739.0663-6.18485.0663v18.57" stroke-width=".04" transform="translate(-260.61445 -97.802188)"/></svg>