<svg height="48" viewBox="0 0 48 47.999999" width="48" xmlns="http://www.w3.org/2000/svg"><path d="m-474.7193-494.56055c-1.41824 0-2.56 1.14176-2.56 2.56v42.88c0 1.41824 1.14176 2.56 2.56 2.56h42.88c1.41824 0 2.56-1.14176 2.56-2.56v-42.88c0-1.41824-1.14176-2.56-2.56-2.56zm21.4307 5.68281c.16875.00015.33745.0608.4661.18196l17.27414 16.27109a.66798464.66798464 0 0 1 .0474.92305l-.43742.50609c-.23113.26742-.62684.28752-.88383.0448-2.42307-2.28807-13.57779-12.82129-16.00086-15.10937-.25699-.24268-.67363-.24268-.93062 0l-16.00079 15.10937a.60774308.60774308 0 0 1 -.88007-.048l-.42532-.49977a.67295744.67295744 0 0 1 .0512-.92609l6.21243-5.84875a1.4887203 1.4887203 0 0 0 .46828-1.07867l.0246-6.99961a.6451316.6451316 0 0 1 .64226-.64282l3.24305-.0145a.64420044.64420044 0 0 1 .64711.63711l.0291 2.64813c.004.35344.21595.44385.47367.20195 1.18929-1.11632 4.32375-4.05845 5.51305-5.17477.12886-.12095.29765-.18131.4664-.18117zm-.001 4.39157a.66981964.66981964 0 0 1 .46421.18562l13.96282 13.34695a1.489137 1.489137 0 0 1 .46015 1.08227l-.0659 16.98805a.64248648.64248648 0 0 1 -.6425.64h-10.41781a.64.64 0 0 1 -.64-.64v-8.38204c0-.35346-.28592-.61909-.63922-.60937-.61032.0168-1.33304.0114-1.84039.004-.35341-.005-.92627-.005-1.27969 0-.50735.008-1.23007.013-1.84039-.004-.35328-.01-.63914.25591-.63914.60937v8.38204a.64.64 0 0 1 -.64.64h-10.41789a.64293732.64293732 0 0 1 -.64289-.64l-.0778-16.98805a1.4868188 1.4868188 0 0 1 .45984-1.08203l13.97532-13.34735a.66981964.66981964 0 0 1 .46125-.18546z" stroke-width=".04" transform="translate(477.2793 494.56055)"/></svg>