<svg height="31" viewBox="0 0 88 31" width="88" xmlns="http://www.w3.org/2000/svg" xmlns:xlink="http://www.w3.org/1999/xlink"><mask id="a" fill="#fff"><path d="m0 0h83v1h-83z" fill="#fff" fill-rule="evenodd"/></mask><mask id="b" fill="#fff"><path d="m0 0h1v31h-1z" fill="#fff" fill-rule="evenodd"/></mask><mask id="c" fill="#fff"><path d="m0 0h83v1h-83z" fill="#fff" fill-rule="evenodd"/></mask><mask id="d" fill="#fff"><path d="m.16.005h80v1h-80z" fill="#fff" fill-rule="evenodd"/></mask><mask id="e" fill="#fff"><path d="m0 0h83v1h-83z" fill="#fff" fill-rule="evenodd"/></mask><mask id="f" fill="#fff"><path d="m0 0h1v31h-1z" fill="#fff" fill-rule="evenodd"/></mask><mask id="g" fill="#fff"><path d="m0 0h83v1h-83z" fill="#fff" fill-rule="evenodd"/></mask><mask id="h" fill="#fff"><path d="m.806 0h1v30h-1z" fill="#fff" fill-rule="evenodd"/></mask><mask id="i" fill="#fff"><path d="m0 0h83v1h-83z" fill="#fff" fill-rule="evenodd"/></mask><mask id="j" fill="#fff"><path d="m.16.005h80v1h-80z" fill="#fff" fill-rule="evenodd"/></mask><mask id="k" fill="#fff"><path d="m0 0h83v1h-83z" fill="#fff" fill-rule="evenodd"/></mask><mask id="l" fill="#fff"><path d="m0 0h1v31h-1z" fill="#fff" fill-rule="evenodd"/></mask><mask id="m" fill="#fff"><path d="m0 0h83v1h-83z" fill="#fff" fill-rule="evenodd"/></mask><g fill="none" fill-rule="evenodd"><path d="m0 0h88v31h-88z"/><path d="m0 0h83v31h-83z" fill="#fc6"/><path d="m.365 0h36.443v31h-36.443z" fill="#fff"/><path d="m4.692 2.291h40.004v24.607h-40.004z"/><path d="m0 30h83v1h-83z" fill="#504d4c"/><g mask="url(#a)" transform="translate(0 30)"><g transform="translate(0 -30)"><path d="m0 0h88v31h-88z" fill="none"/><g fill-rule="evenodd"><path d="m0 0h83v31h-83z" fill="#4e4b3f"/><path d="m.365 0h36.443v31h-36.443z" fill="#4f4f4f"/></g></g></g><path d="m82 0h1v31h-1z" fill="#504d4c"/><g mask="url(#b)" transform="translate(82)"><g transform="translate(-82)"><path d="m0 0h88v31h-88z" fill="none"/><g fill-rule="evenodd"><path d="m0 0h83v31h-83z" fill="#4e4b3f"/><g fill="none" transform="translate(0 30)"><path d="m0 0h83v1h-83z" fill="#191919"/><g mask="url(#c)"><g transform="translate(0 -30)"><path d="m0 0h88v31h-88z" fill="none"/><g fill-rule="evenodd"><path d="m0 0h83v31h-83z" fill="#191917"/><path d="m.366 0h36.443v31h-36.443z" fill="#191919"/></g></g></g></g></g></g></g><path d="m0 0h1v31h-1z" fill="#ccc"/><path d="m2.16 29.005h80v1h-80z" fill="#9e9c9c"/><g mask="url(#d)" transform="translate(2 29)"><g transform="translate(-2 -29)"><path d="m0 0h88v31h-88z" fill="none"/><g fill-rule="evenodd"><path d="m0 0h83v31h-83z" fill="#b39f67"/><path d="m.365 0h36.443v31h-36.443z" fill="#b5b5b5"/><g fill="none" transform="translate(0 30)"><path d="m0 0h83v1h-83z" fill="#383838"/><g mask="url(#e)"><g transform="translate(0 -30)"><path d="m0 0h88v31h-88z" fill="none"/><g fill-rule="evenodd"><path d="m0 0h83v31h-83z" fill="#383530"/><path d="m.366 0h36.443v31h-36.443z" fill="#383838"/></g></g></g></g><g fill="none" transform="translate(82)"><path d="m0 0h1v31h-1z" fill="#383838"/><g mask="url(#f)"><g transform="translate(-82)"><path d="m0 0h88v31h-88z" fill="none"/><g fill-rule="evenodd"><path d="m0 0h83v31h-83z" fill="#383530"/><g fill="none" transform="translate(0 30)"><path d="m0 0h83v1h-83z" fill="#131313"/><g mask="url(#g)"><g transform="translate(0 -30)"><path d="m0 0h88v31h-88z" fill="none"/><g fill="#131313" fill-rule="evenodd"><path d="m0 0h83v31h-83z"/><path d="m.366 0h36.443v31h-36.443z"/></g></g></g></g></g></g></g></g></g></g></g><path d="m80.806 1h1v30h-1z" fill="#9e9c9c"/><g mask="url(#h)" transform="translate(80 1)"><g transform="translate(-80 -1)"><path d="m0 0h88v31h-88z" fill="none"/><g fill-rule="evenodd"><path d="m0 0h83v31h-83z" fill="#b39f67"/><g fill="none" transform="translate(0 30)"><path d="m0 0h83v1h-83z" fill="#383838"/><g mask="url(#i)"><g transform="translate(0 -30)"><path d="m0 0h88v31h-88z" fill="none"/><g fill-rule="evenodd"><path d="m0 0h83v31h-83z" fill="#383530"/><path d="m.366 0h36.443v31h-36.443z" fill="#383838"/></g></g></g></g><g fill="none" transform="translate(2 29)"><path d="m.16.005h80v1h-80z" fill="#818181"/><g mask="url(#j)"><g transform="translate(-2 -29)"><path d="m0 0h88v31h-88z" fill="none"/><g fill-rule="evenodd"><path d="m0 0h83v31h-83z" fill="#807659"/><path d="m.365 0h36.443v31h-36.443z" fill="#818181"/><g fill="none" transform="translate(0 30)"><path d="m0 0h83v1h-83z" fill="#272727"/><g mask="url(#k)"><g transform="translate(0 -30)"><path d="m0 0h88v31h-88z" fill="none"/><g fill-rule="evenodd"><path d="m0 0h83v31h-83z" fill="#272623"/><path d="m.366 0h36.443v31h-36.443z" fill="#272727"/></g></g></g></g><g fill="none" transform="translate(82)"><path d="m0 0h1v31h-1z" fill="#272727"/><g mask="url(#l)"><g transform="translate(-82)"><path d="m0 0h88v31h-88z" fill="none"/><g fill-rule="evenodd"><path d="m0 0h83v31h-83z" fill="#272623"/><g fill="none" transform="translate(0 30)"><path d="m0 0h83v1h-83z" fill="#101010"/><g mask="url(#m)"><g transform="translate(0 -30)"><path d="m0 0h88v31h-88z" fill="none"/><g fill="#101010" fill-rule="evenodd"><path d="m0 0h83v31h-83z"/><path d="m.366 0h36.443v31h-36.443z"/></g></g></g></g></g></g></g></g></g></g></g></g></g></g></g><path d="m0 0h83v1h-83z" fill="#ccc"/><path d="m68.273 18.845 6.018 5.503 11.71-11.711" stroke="#900" stroke-width="4.8115"/><g fill-rule="nonzero"><g fill="#000" transform="translate(39 5)"><path d="m.991.822h1.88v2.779h2.773v-2.779h1.88v7.29h-1.88v-3.091h-2.773v3.091h-1.88z"/><path d="m8.09.822h6.72v1.421h-2.417v5.869h-1.88v-5.869h-2.423z"/><path d="m15.381.822h2.392l1.661 3.902 1.67-3.902h2.387v7.29h-1.777v-5.332l-1.68 3.931h-1.191l-1.68-3.931v5.332h-1.782z"/><path d="m24.932.822h1.88v5.869h3.301v1.421h-5.181z"/><path d="m36.5538289 5.72411184c0 .37089659-.069542.7154096-.2086282 1.03354934-.1390863.31813975-.3413178.59071268-.6067007.81772698-.2941594.24300121-.6322777.42285139-1.0143651.53955592-.3820875.11670453-.8177246.17505592-1.3069244.17505592-.5723318-.00319738-1.0559289-.04875943-1.4508059-.1366875s-.7170086-.18624617-.9664046-.29495724v-1.57790131h.2014342c.290962.17265876.604301.3165389.9400263.43164473.3357254.11510584.669847.1726579 1.002375.1726579.2014352 0 .4196535-.02318069.6546612-.06954276.2350078-.04636208.4212526-.13029216.5587401-.25179277.1087111-.09911891.1910425-.19983501.2469968-.30215131.0559542-.1023163.0839309-.26058446.0839309-.47480921 0-.16626399-.0375687-.3093448-.1127073-.42924671-.0751385-.11990192-.1718579-.21662135-.2901611-.29016119-.1726588-.10551368-.3804857-.17505575-.6234869-.20862829-.2430012-.03357253-.4636174-.05035855-.6618553-.05035855-.2877645 0-.5635348.02477936-.827319.07433882-.2637842.04955945-.4947918.09831883-.6930296.1462796h-.2110264v-4.02868421h5.0790198v1.366875h-3.3476448v1.16544079c.099119-.00639477.2246144-.01199011.3764902-.01678618.1518757-.00479608.2853645-.00719408.4004704-.00719408.3932783 0 .7441859.0375687 1.0527335.11270723.3085476.07513854.5747259.17985131.7985428.31414145.290962.17585614.5179729.40846237.6810395.69782566s.2445986.65306031.2445986 1.09110197z"/></g><g fill="#000" transform="translate(25 7)"><path d="m8.077.037.334 2.034-1.185 2.266s-.455-.961-1.21-1.493c-.636-.448-1.051-.546-1.699-.412-.833.172-1.777 1.167-2.189 2.395-.493 1.469-.498 2.179-.515 2.832-.028 1.047.137 1.665.137 1.665s-.719-1.33-.71205078-3.279c.00505078-1.391.22305078-2.652.86705078-3.897.566-1.094 1.407-1.751 2.154-1.828.772-.08 1.383.292 1.854.695.495.423.996 1.348.996 1.348z"/><path d="m8.222 11.547s-.523.936-.85 1.296c-.326.36-.91.996-1.63 1.313-.721.317-1.099.377-1.811.309-.712-.069-1.373-.481-1.605-.652-.231-.172-.824-.678-1.159-1.15s-.858-1.416-.858-1.416.292.946.474 1.347c.105.231.428.938.886 1.553.427.574 1.257 1.562 2.519 1.785s2.128-.343 2.343-.48c.214-.137.667-.516.953-.822.299-.32.582-.728.738-.972.114-.178.301-.541.301-.541z"/></g><g fill="#005a9c" transform="translate(3 7)"><path d="m8.437.127 2.852 9.698 2.852-9.698h2.065l-4.721 15.933h-.197l-2.95-9.875-2.951 9.875h-.196l-4.721-15.933h2.065l2.853 9.698 1.928-6.531-.944-3.167z"/><path d="m22.072 10.946c0 1.443-.384 2.656-1.151 3.639s-1.761 1.475-2.98 1.475c-.918 0-1.718-.292-2.4-.875s-1.187-1.373-1.515-2.37l1.613-.668c.236.603.548 1.079.935 1.426s.843.521 1.367.521c.551 0 1.016-.308 1.397-.924.38-.616.571-1.357.571-2.223 0-.957-.203-1.698-.61-2.223-.473-.616-1.214-.925-2.223-.925h-.787v-.944l2.754-4.761h-3.325l-.925 1.574h-.59v-3.541h7.672v.964l-2.911 5.016c1.023.328 1.797.925 2.321 1.791.524.865.787 1.881.787 3.048z"/></g></g></g></svg>