<svg height="48" width="48" xmlns="http://www.w3.org/2000/svg"><path d="m-902.68292 383.49352c-1.41824 0-2.56 1.14176-2.56 2.56v42.88c0 1.41824 1.14176 2.56 2.56 2.56h42.88c1.41824 0 2.56-1.14176 2.56-2.56v-42.88c0-1.41824-1.14176-2.56-2.56-2.56zm7.6718 7.61875c2.1 0 3.8 1.8 3.8 3.8s-1.80001 3.6-3.8 3.6c-2.00001 0-3.8-1.7-3.8-3.6s1.69999-3.8 3.8-3.8zm21.47422 9.94086c4.76988 0 8.34585 3.09767 8.34585 9.75516v12.4282h-7.24953v-11.59586c0-2.91377-1.04901-4.90094-3.67242-4.90094-2.00281 0-3.19536 1.34063-3.71945 2.63493-.19144.46307-.23883 1.10924-.23883 1.75702v12.10485h-7.24953s.0951-19.64057 0-21.67438h7.24953v3.07141c.96269-1.47723 2.68307-3.58039 6.53438-3.58039zm-6.53438 3.58039c-.015.023-.0337.0487-.0483.0713h.0483zm-18.5118-3.07141h7.25086v21.67438h-7.25086z" stroke-width=".04" transform="translate(905.24292 -383.49352)"/></svg>