<svg height="48" viewBox="0 0 48 48" width="48" xmlns="http://www.w3.org/2000/svg"><path d="m2471.8037 457.61155c-1.4182 0-2.56 1.14176-2.56 2.56v42.88c0 1.41824 1.1418 2.56 2.56 2.56h42.88c1.4182 0 2.56-1.14176 2.56-2.56v-42.88c0-1.41824-1.1418-2.56-2.56-2.56zm5.4971 12h31.8858c.6255 0 1.1835.27674 1.5602.71453l-17.2335 14.51906c-.498.4196-1.1644.28544-1.6564-.14117l-16.2987-14.13101c.3634-.57827 1.0064-.96141 1.7426-.96141zm33.9429 2.82906v19.11383c0 .20027-.029.3934-.082.57617l-12.0289-9.50281 10.698-9.01305zm-36 .25782 11.5799 10.03992-11.5369 9.23773c-.028-.13607-.043-.27699-.043-.42164zm22.2091 11.34492 11.9687 9.55453c-.077.009-.1554.0137-.2349.0137h-31.8858c-.188 0-.3697-.0254-.5425-.0722l11.7267-9.36062 3.4414 2.98375c.4921.42661 1.1584.56085 1.6564.14125z" stroke-width=".04" transform="translate(-2469.2437 -457.61155)"/></svg>