<svg height="48.000004" viewBox="0 0 48 48.000006" width="48" xmlns="http://www.w3.org/2000/svg"><path d="m56.56 54.666016c-1.41824 0-2.56 1.14176-2.56 2.56v42.880004c0 1.41824 1.14176 2.56 2.56 2.56h42.88c1.41824 0 2.56-1.14176 2.56-2.56v-42.880004c0-1.41824-1.14176-2.56-2.56-2.56zm8.817266 6c.212916-.00012.425946.03742.587656.112656.33913.157779 7.524139 7.34623 7.676406 7.680079.3543.77682.222142 1.026513-1.413672 2.670625-.718161.721805-1.162543 1.162299-1.183167 1.162299-.06134 0-9.015017-8.992827-9.015017-9.054301 0-.12134 2.522186-2.346127 2.761075-2.457999.161043-.07542.373802-.113238.586719-.113359zm-4.145704 3.602266c2.847691 2.989406 6.062878 6.19848 8.870154 8.993516-.802181.88144-.442584 2.261577 1.104922 4.240781 2.209436 2.825784 5.088971 5.616451 8.306562 8.05 1.446335.912154 2.919135 2.113437 4.151641 1.059609.10102.0018 8.684844 8.72336 8.684844 8.72336-.458984.556795-1.669182.99918-2.969376 1.208672-5.888335.948732-14.16012-3.6942-21.750309-12.208516-5.84258-6.553935-8.482208-12.908544-7.387656-17.784688.200289-.892276.765641-2.196919.989218-2.282734zm26.441719 18.672813c.02862.000037.05858.0011.08992.0032.501543.03429.821797.336484.821797.336484 2.582655 2.634788 4.777908 4.860394 7.26836 7.31164 0 0 .249351.129818.239783.634047-.0096.504227-.250175.656266-.250175.656266-.942691.946842-1.363997 1.409004-2.635912 2.583666 0 0-8.643376-8.735597-8.643376-8.784791.859775-.89654 1.552607-1.560914 2.551476-2.5195 0 0 .128773-.221572.558125-.221016z" stroke-width=".04" transform="translate(-54 -54.666016)"/></svg>