<svg height="47.999996" viewBox="0 0 47.999994 47.999994" width="47.999996" xmlns="http://www.w3.org/2000/svg"><path d="m55.893984 53.333984c-1.41824 0-2.56 1.14176-2.56 2.56v42.88c0 1.418236 1.14176 2.559996 2.56 2.559996h42.88c1.418236 0 2.559996-1.14176 2.559996-2.559996v-42.88c0-1.41824-1.14176-2.56-2.559996-2.56zm21.567734 6.486875c3.164713.003 6.444341 1.049278 9.419219 3.457656 8.374067 6.779413 6.566331 21.100023-3.010782 23.850703-3.588037 1.030535-6.703478.572831-8.60414-1.264219-.195183-.188654-.361879-.33383-.370469-.322578-.0086.01126-.551155 1.7392-1.205703 3.839844-1.51097 4.849163-1.618186 5.047811-2.909219 5.391639-1.818979.484428-3.924878-1.538244-3.155781-3.031016.352287-.683763 4.431826-13.664913 4.364453-13.887732-1.579862-5.225045.936167-9.595239 4.879219-8.475 2.443734.694274 2.78145 3.108367.969219 6.928125-.952196 2.006993-1.161087 2.847992-.951563 3.831093.777011 3.645797 6.773069 3.245412 9.342344-.623828 4.337544-6.532196-1.595876-15.464232-9.691563-14.589453-7.067204.763647-10.935706 7.409458-8.028281 13.792031 1.706541 3.746312-2.707243 5.649678-4.517578 1.948125-5.208732-10.650173 3.568136-20.854864 13.470625-20.84539z" stroke-width=".04" transform="translate(-53.333984 -53.333984)"/></svg>