<svg height="12.7mm" viewBox="0 0 12.7 12.7" width="12.7mm" xmlns="http://www.w3.org/2000/svg"><path d="m2.5605469 0c-1.418218 0-2.5605469 1.142307-2.5605469 2.5605469v42.8789061c0 1.418236 1.1423289 2.560547 2.5605469 2.560547h42.8789061c1.418218 0 2.560547-1.142311 2.560547-2.560547v-42.8789061c0-1.4182399-1.142329-2.5605469-2.560547-2.5605469zm9.0722651 6c2.033677 0 4.314454 1.438393 4.314454 4.314453v5.751953s3.023111.00435 4.314453 0c1.242494 0 2.164188.357815 2.83789.908203 1.439548-.547642 2.998164-.859375 4.638672-.859375 7.190153 0 12.840181 5.64782 12.94336 12.94336v8.626953c0 2.300844-2.0136 4.314453-4.314453 4.314453-1.438035 0-2.876954-1.4375-2.876954-1.4375s-2.013075 1.4375-5.751953 1.4375c-1.653285 0-3.220771-.322336-4.666015-.886719-.675213.539001-1.594358.886719-2.810547.886719-7.765371 0-12.9433596-5.800616-12.9433596-11.552734v-20.132813c0-2.87606 2.2807652-4.314453 4.3144526-4.314453zm11.439454 35.113281c1.081217-.863102 1.528732-2.222641 1.503906-3.482422-.041448-2.100625-1.15223-4.308593-4.603516-4.308593-4.026482 0-4.04376-2.419912-4.02539-5.679688v-2.947266h4.314453c3.163673 0 4.314453-2.280766 4.314453-4.314453 0-1.234975-.434866-2.555223-1.476563-3.40625-4.869819 1.852609-8.302734 6.534322-8.302734 12.083985.039267 5.441417 3.435253 10.164566 8.275391 12.054687zm4.666015-17.808593c-3.451275 0-5.751953 2.302631-5.751953 5.753906 0 3.451276 2.300678 5.751953 5.751953 5.751953 3.451277 0 5.751953-2.300677 5.751953-5.751953 0-3.451275-2.300676-5.753906-5.751953-5.753906z" transform="scale(.26458332)"/></svg>