<svg height="48" viewBox="0 0 48 48" width="48" xmlns="http://www.w3.org/2000/svg"><path d="m112.6225 23.67773c-1.41824 0-2.56 1.14176-2.56 2.56v42.88c0 1.41824 1.14176 2.56 2.56 2.56h42.88c1.41824 0 2.56-1.14176 2.56-2.56v-42.88c0-1.41824-1.14176-2.56-2.56-2.56zm36.93305 12.104922c-.49742 1.535294-2.43665 3.335821-3.93008 3.924922v.03969c1.36124-.257066 2.59783-.661604 3.89039-1.149766-.41802 1.325289-2.18854 2.057377-2.60695 3.175-.35411.946431-.023 2.571594-.13539 3.604453-.26042 2.390976-1.11954 4.801475-2.35454 6.858829-5.559 9.26013-17.56879 10.640576-26.58203 6.026172v-.03961c4.05093.06779 6.90051-.982466 10.51993-2.577031v-.039611c-2.64027 0-6.91532-1.133801-7.82047-3.96461 1.36282 0 2.4353-.407444 3.73156-.673984v-.03969c-2.93669-.04928-5.1607-3.174421-5.1607-5.867578 1.09308.133012 2.86601.919829 3.93007 1.308281-2.43935-3.049298-5.25534-4.953979-3.05672-9.2375h.0794c2.98353 4.075577 8.40388 7.889532 13.61641 7.889532 0-1.330086-.12915-2.736419.13453-4.043907.76093-3.773553 4.26033-5.911606 7.96383-4.96125.92178.236568 2.06187 1.467098 2.81851 1.552812 1.52757.173016 3.62246-1.211675 4.96227-1.785156z" stroke-width=".04" transform="translate(-110.0625 -23.67773)"/></svg>